# xmcd
#
# Track frame offsets:
#	150
#	17760
#	36335
#	53960
#	70217
#	86334
#	105044
#	121674
#	136242
#	158979
#	173279
#	192619
#	209734
#	227224
#	243747
#	259810
#	276570
#
# Disc length: 3952 seconds
#
# Revision: 0
# Processed by: cddbd v1.5.1PL0 Copyright (c) Steve Scherf et al.
# Submitted via: dBpowerAMP V4.0
#
DISCID=f10f6e11
DTITLE=Westlife - Wetlife
DYEAR=1900
DGENRE=
TTITLE0=Fool again
TTITLE1=Swear again
TTITLE2=More than words
TTITLE3=Flying without wings
TTITLE4=Try again
TTITLE5=Season in the sun
TTITLE6=If i let you go
TTITLE7=No no
TTITLE8=I' don't wanna fight
TTITLE9=Change the world
TTITLE10=Moments
TTITLE11=I need you
TTITLE12=Miss you
TTITLE13=Open your heart
TTITLE14=What i wants is what i' ve got
TTITLE15=We are one
TTITLE16=Can't lose what never had
EXTD=
EXTT0=
EXTT1=
EXTT2=
EXTT3=
EXTT4=
EXTT5=
EXTT6=
EXTT7=
EXTT8=
EXTT9=
EXTT10=
EXTT11=
EXTT12=
EXTT13=
EXTT14=
EXTT15=
EXTT16=
PLAYORDER=
